{"title":"[ShepardTDS] Heaven's Lost Property Season 2 Forte Dual Audio [B","uid":12438905,"size":3127050644,"categoryP":"video","categoryS":"tv_shows","magnet":"?xt=urn:btih:e4da05704c78d5dcc8c23cb5e0bb20c23adef89d&amp;dn=%5BShepardTDS%5D+Heaven%27s+Lost+Property+Season+2+Forte+Dual+Audio+%5BB&amp;tr=udp%3A%2F%2Ftracker.openbittorrent.com%3A80&amp;tr=udp%3A%2F%2Fopen.demonii.com%3A1337&amp;tr=udp%3A%2F%2Ftracker.coppersurfer.tk%3A6969&amp;tr=udp%3A%2F%2Fexodus.desync.com%3A6969","seeders":1,"leechers":0,"uploader":"ShepardTDS","files":24,"time":1442551829,"description":"General\n\nFormat : Matroska\nFile size : 260 MiB\nDuration : 47mn 27s\nOverall bit rate : 766 Kbps\nEncoded date : UTC 2015-09-17 12:03:10\nWriting application : mkvmerge v7.7.0 ('Six Voices') 32bit built on Feb 28 2015 23:23:00\nWriting library : libebml v1.3.1 + libmatroska v1.4.2\n\nVideo\n\nFormat : AVC\nFormat/Info : Advanced Video Codec\nFormat profile : &lt;a class=&quot;__cf_email__&quot; href=&quot;/cdn-cgi/l/email-protection&quot; data-cfemail=&quot;efa7868887afa3dac1df&quot;&gt;[email&amp;#160;protected]&lt;/a&gt;&lt;script data-cfhash='f9e31' type=&quot;text/javascript&quot;&gt;\n/* &lt;![CDATA[ */!function(){try{var t=&quot;currentScript&quot;in document?document.currentScript:function(){for(var t=document.getElementsByTagName(&quot;script&quot;),e=t.length;e--;)if(t[e].getAttribute(&quot;data-cfhash&quot;))return t[e]}();if(t&amp;&amp;t.previousSibling){var e,r,n,i,c=t.previousSibling,a=c.getAttribute(&quot;data-cfemail&quot;);if(a){for(e=&quot;&quot;,r=parseInt(a.substr(0,2),16),n=2;a.length-n;n+=2)i=parseInt(a.substr(n,2),16)^r,e+=String.fromCharCode(i);e=document.createTextNode(e),c.parentNode.replaceChild(e,c)}t.parentNode.removeChild(t);}}catch(u){}}()/* ]]&gt; */&lt;/script&gt;\nFormat settings, CABAC : Yes\nFormat settings, ReFrames : 16 frames\nCodec ID : V_MPEG4/ISO/AVC\nDuration : 47mn 27s\nBit rate : 239 Kbps\nNominal bit rate : 750 Kbps\nWidth : 1 280 pixels\nHeight : 720 pixels\nDisplay aspect ratio : 16:9\nFrame rate : 23.976 fps\nColor space : YUV\nChroma subsampling : 4:2:0\nBit depth : 8 bits\nScan type : Progressive\nBits/(Pixel*Frame) : 0.011\nStream size : 81.2 MiB (31%)\nWriting library : x264 core 146 r2538 121396c\n\nAudio #1\nID : 2\nFormat : AC-3\nFormat/Info : Audio Coding 3\nMode extension : CM (complete main)\nCodec ID : A_AC3\nDuration : 47mn 27s\nBit rate mode : Constant\nBit rate : 256 Kbps\nChannel(s) : 6 channels\nChannel positions : Front: L C R, Side: L R, LFE\nSampling rate : 48.0 KHz\nBit depth : 16 bits\nCompression mode : Lossy\nStream size : 86.9 MiB (33%)\nLanguage : English\n\nAudio #2\nID : 3\nFormat : AC-3\nFormat/Info : Audio Coding 3\nMode extension : CM (complete main)\nCodec ID : A_AC3\nDuration : 47mn 27s\nBit rate mode : Constant\nBit rate : 256 Kbps\nChannel(s) : 2 channels\nChannel positions : Front: L R\nSampling rate : 48.0 KHz\nBit depth : 16 bits\nCompression mode : Lossy\nStream size : 86.9 MiB (33%)\nLanguage : Japanese\n\nText\nID : 4\nFormat : PGS\nMuxing mode : zlib\nCodec ID : S_HDMV/PGS\nCodec ID/Info : The same subtitle format used on BDs/HD-DVDs\nLanguage : English\n\nalso contains ASS subtitles separately\nFor some reason it shows double the duration time but its an error somewhere and i gave up trying to find it. its all legit no worries","torrent":{"xt":"urn:btih:e4da05704c78d5dcc8c23cb5e0bb20c23adef89d","amp;dn":"%5BShepardTDS%5D+Heaven%27s+Lost+Property+Season+2+Forte+Dual+Audio+%5BB","amp;tr":["udp%3A%2F%2Ftracker.openbittorrent.com%3A80","udp%3A%2F%2Fopen.demonii.com%3A1337","udp%3A%2F%2Ftracker.coppersurfer.tk%3A6969","udp%3A%2F%2Fexodus.desync.com%3A6969"],"infoHash":"e4da05704c78d5dcc8c23cb5e0bb20c23adef89d","infoHashBuffer":{"type":"Buffer","data":[228,218,5,112,76,120,213,220,200,194,60,181,224,187,32,194,58,222,248,157]},"announce":[],"urlList":[]}}